<svg version="1.1" xmlns="http://www.w3.org/2000/svg" width="46" height="42">
<path d="M0 0 C15.18 0 30.36 0 46 0 C46 13.86 46 27.72 46 42 C30.82 42 15.64 42 0 42 C0 28.14 0 14.28 0 0 Z " fill="#FEFEFE" transform="translate(0,0)"/>
<path d="M0 0 C6.27 0 12.54 0 19 0 C19.21702634 4.00293031 19.37495239 7.99401057 19.5 12 C19.60054687 13.68802734 19.60054687 13.68802734 19.703125 15.41015625 C19.83850003 21.19743868 19.59657121 25.2608269 15.75 29.78125 C10.45777996 34.25169674 5.13071866 33.91243705 -1.5 33.5 C-2.60859375 33.46390625 -3.7171875 33.4278125 -4.859375 33.390625 C-7.57657034 33.29692861 -10.28641941 33.1659292 -13 33 C-13.14570522 28.79203314 -13.23421087 24.58471834 -13.3125 20.375 C-13.35439453 19.18519531 -13.39628906 17.99539062 -13.43945312 16.76953125 C-13.57761233 6.87733186 -13.57761233 6.87733186 -10.60546875 3.1640625 C-8 1 -8 1 -6 1 C-6 2.98 -6 4.96 -6 7 C-4.02 7 -2.04 7 0 7 C0 4.69 0 2.38 0 0 Z " fill="#62CC44" transform="translate(21,5)"/>
<path d="M0 0 C3.63 0 7.26 0 11 0 C11.10826289 2.4178712 11.18739789 4.83087556 11.25 7.25 C11.30027344 8.27287109 11.30027344 8.27287109 11.3515625 9.31640625 C11.41504187 12.58559375 11.20550011 14.6686835 9.46875 17.46875 C6.08830807 19.56547981 3.0916054 19.43881236 -0.75 19.25 C-1.44738281 19.23195313 -2.14476562 19.21390625 -2.86328125 19.1953125 C-4.57611539 19.14838554 -6.28823824 19.07664605 -8 19 C-8 15.04 -8 11.08 -8 7 C-5.36 7 -2.72 7 0 7 C0 4.69 0 2.38 0 0 Z " fill="#F2FBF0" transform="translate(22,12)"/>
</svg>